HIERARCHY
ROOT Hips
{
	OFFSET 0.000000 0.000000 0.000000
	CHANNELS 6 Xposition Yposition Zposition Yrotation Xrotation Zrotation
	JOINT Chest
	{
		OFFSET 0.000000 -0.009281 11.569106
		CHANNELS 3 Yrotation Xrotation Zrotation
		JOINT Chest2
		{
			OFFSET -0.000000 0.016865 9.269641
			CHANNELS 3 Yrotation Xrotation Zrotation
			JOINT Chest3
			{
				OFFSET -0.000000 0.000001 8.374491
				CHANNELS 3 Yrotation Xrotation Zrotation
				JOINT Chest4
				{
					OFFSET -0.000000 0.000001 8.374493
					CHANNELS 3 Yrotation Xrotation Zrotation
					JOINT Neck
					{
						OFFSET -0.000000 0.000002 12.152554
						CHANNELS 3 Yrotation Xrotation Zrotation
						JOINT Head
						{
							OFFSET -0.000000 0.040101 7.802319
							CHANNELS 3 Yrotation Xrotation Zrotation
							End Site
							{
								OFFSET -0.000000 0.020947 14.853096
							}
						}
					}
					JOINT RightCollar
					{
						OFFSET 2.894404 0.000001 6.791374
						CHANNELS 3 Yrotation Xrotation Zrotation
						JOINT RightShoulder
						{
							OFFSET 13.574684 0.000001 0.000000
							CHANNELS 3 Yrotation Xrotation Zrotation
							JOINT RightElbow
							{
								OFFSET 23.923903 0.000002 0.000000
								CHANNELS 3 Yrotation Xrotation Zrotation
								JOINT RightWrist
								{
									OFFSET 19.846718 0.012767 0.000000
									CHANNELS 3 Yrotation Xrotation Zrotation
									End Site
									{
										OFFSET 14.973145 0.000001 0.000000
									}
								}
							}
						}
					}
					JOINT LeftCollar
					{
						OFFSET -2.894404 0.000001 6.791374
						CHANNELS 3 Yrotation Xrotation Zrotation
						JOINT LeftShoulder
						{
							OFFSET -13.574684 -0.000001 0.000000
							CHANNELS 3 Yrotation Xrotation Zrotation
							JOINT LeftElbow
							{
								OFFSET -23.923903 -0.000002 0.000000
								CHANNELS 3 Yrotation Xrotation Zrotation
								JOINT LeftWrist
								{
									OFFSET -19.846718 0.012763 0.000000
									CHANNELS 3 Yrotation Xrotation Zrotation
									End Site
									{
										OFFSET -14.973145 -0.000001 0.000000
									}
								}
							}
						}
					}
				}
			}
		}
	}
	JOINT RightHip
	{
		OFFSET 9.469263 0.004643 0.045487
		CHANNELS 3 Yrotation Xrotation Zrotation
		JOINT RightKnee
		{
			OFFSET 0.000000 0.002661 -40.478676
			CHANNELS 3 Yrotation Xrotation Zrotation
			JOINT RightAnkle
			{
				OFFSET 0.000000 0.049106 -35.224068
				CHANNELS 3 Yrotation Xrotation Zrotation
				JOINT RightToe
				{
					OFFSET -0.000001 12.539529 -6.151390
					CHANNELS 3 Yrotation Xrotation Zrotation
					End Site
					{
						OFFSET -0.000001 5.044994 -1.291870
					}
				}
			}
		}
	}
	JOINT LeftHip
	{
		OFFSET -9.469263 0.004641 0.045487
		CHANNELS 3 Yrotation Xrotation Zrotation
		JOINT LeftKnee
		{
			OFFSET 0.000000 0.002661 -40.478676
			CHANNELS 3 Yrotation Xrotation Zrotation
			JOINT LeftAnkle
			{
				OFFSET 0.000000 0.049106 -35.224068
				CHANNELS 3 Yrotation Xrotation Zrotation
				JOINT LeftToe
				{
					OFFSET -0.000001 12.539529 -6.151390
					CHANNELS 3 Yrotation Xrotation Zrotation
					End Site
					{
						OFFSET -0.000001 5.044994 -1.291870
					}
				}
			}
		}
	}
}
MOTION
Frames: 13
Frame Time: 0.016667
40.874847 9.234709 84.453781 -4.876855 1.285918 -116.894904 -1.247364 0.581082 -0.771261 -0.501739 0.338036 -0.559918 -0.501740 0.338036 -0.559921 -0.375994 0.253986 -0.419661 0.766724 -16.800445 2.589211 2.330486 4.909127 5.067536 8.498774 0.251278 -3.545573 59.553369 -28.486832 -15.945229 23.552985 -79.835773 52.961734 -22.191783 16.396176 35.241071 -9.533873 1.485607 -5.836427 -58.040400 -23.931453 17.434712 -85.412021 -55.535015 1.484596 5.850606 17.137715 -30.061336 -6.879176 -17.543356 -17.707282 8.367763 -17.874086 -3.699361 7.498247 -24.579467 -3.149515 -4.729291 54.583248 0.354918 -7.434523 2.894396 7.375504 -5.457977 -5.389800 22.172720 3.629322 -1.762852 7.340472 -0.560018 -1.307995 -1.691164 
41.211872 9.096892 84.391304 -4.533066 1.520019 -116.436899 -1.403912 0.659352 -0.615966 -0.570481 0.342713 -0.499149 -0.570481 0.342713 -0.499151 -0.427580 0.257501 -0.374042 1.068732 -16.641039 2.207120 2.763014 5.206953 4.471866 8.533698 0.387123 -3.615214 59.616582 -28.338156 -16.123464 24.441916 -79.771528 52.088576 -21.924299 16.391260 35.311706 -9.496107 1.616206 -5.953139 -58.017853 -23.789962 17.596499 -85.364633 -55.553019 1.422981 5.931739 17.054511 -29.735304 -6.856044 -17.491961 -18.065447 8.193983 -17.660841 -3.830029 8.440980 -25.412351 -2.918521 -5.897897 55.440068 -0.313310 -7.569692 3.079292 6.963852 -5.350533 -5.539185 21.805546 3.583568 -1.554494 7.335911 -0.712933 -1.388659 -1.664603 
41.596352 8.998119 84.313774 -4.244775 1.720000 -116.073191 -1.537907 0.652435 -0.352319 -0.636872 0.325828 -0.427692 -0.636872 0.325827 -0.427693 -0.477425 0.244816 -0.320431 1.352980 -16.448899 1.801932 3.154966 5.568087 3.828514 8.615935 0.542271 -3.707943 59.661347 -28.219842 -16.286117 24.641203 -79.679498 51.922169 -21.659962 16.330199 35.254585 -9.509693 1.796033 -6.137460 -57.891126 -23.646986 17.826234 -85.309227 -55.637574 1.324467 6.012999 16.895965 -29.482925 -6.931920 -17.417636 -18.237947 8.066529 -17.627919 -3.978724 9.354905 -26.189467 -2.779611 -6.945561 56.332429 -0.864664 -7.806674 3.085798 6.281738 -5.206997 -5.451890 21.506681 3.813406 -1.417775 7.538306 -1.016022 -1.499426 -1.708978 
42.054787 8.949345 84.214554 -4.068668 1.897820 -115.734974 -1.647090 0.563812 -0.043458 -0.685929 0.292553 -0.366575 -0.685930 0.292553 -0.366576 -0.514271 0.219826 -0.274604 1.577007 -16.253559 1.391644 3.432176 5.938546 3.154240 8.727324 0.716980 -3.786102 59.656416 -28.109903 -16.505198 24.199872 -79.598362 52.447015 -21.365759 16.238920 35.080685 -9.549992 2.103159 -6.209868 -57.757166 -23.643694 18.122647 -85.305784 -55.742864 1.297645 6.079326 16.650560 -29.356160 -7.146707 -17.354778 -18.260369 7.980717 -17.844124 -4.004726 10.274507 -26.837020 -2.815466 -7.873439 57.253596 -1.291329 -8.176822 2.857647 5.213611 -5.061922 -5.145967 21.272467 4.249142 -1.275147 8.035165 -1.368693 -1.661781 -1.832730 
42.569988 8.920085 84.083870 -3.942891 2.060756 -115.411933 -1.685374 0.426923 0.299650 -0.708800 0.257122 -0.322696 -0.708800 0.257122 -0.322695 -0.531464 0.193216 -0.241723 1.733395 -16.069999 0.978397 3.580604 6.290026 2.449182 8.853010 0.844991 -3.795926 59.558826 -27.902766 -16.719926 23.667090 -79.558931 53.097068 -21.107299 16.125313 34.876524 -9.520301 2.235343 -6.232746 -57.638792 -23.526981 18.214892 -85.315736 -55.813215 1.357102 6.071690 16.376444 -29.356536 -7.424105 -17.253734 -18.093016 7.965000 -18.266004 -3.807575 11.065594 -27.339695 -3.214643 -8.398857 58.226331 -1.351637 -8.570145 2.488005 3.919718 -4.987499 -4.736070 21.148200 4.758576 -0.971324 8.735596 -1.654694 -1.925393 -2.047458 
43.078266 8.886085 83.921074 -3.765520 2.188019 -114.979159 -1.589074 0.306317 0.593615 -0.700515 0.220285 -0.307932 -0.700515 0.220285 -0.307932 -0.525275 0.165568 -0.230695 1.840676 -15.906595 0.555197 3.631664 6.605704 1.706237 8.959392 0.964184 -3.766851 59.429025 -27.671678 -16.929387 23.119985 -79.562189 53.742961 -20.950022 15.972023 34.730429 -9.453404 2.247405 -6.244112 -57.590311 -23.342308 18.154341 -85.261422 -55.823006 1.412191 5.922837 16.160876 -29.427027 -7.645622 -17.024851 -17.804042 8.080432 -18.873411 -3.538878 11.788991 -27.828745 -3.833443 -8.880358 59.344222 -1.380095 -8.845483 2.085566 2.592693 -5.043255 -4.290003 21.142248 5.235352 -0.433637 9.282114 -1.783848 -2.315799 -2.347406 
43.547256 8.846792 83.740990 -3.571781 2.379892 -114.371825 -1.476878 0.193290 0.825403 -0.673049 0.177319 -0.325164 -0.673049 0.177318 -0.325162 -0.504692 0.133347 -0.243679 1.933105 -15.760265 0.107441 3.643843 6.889957 0.910537 9.077671 1.160864 -3.721231 59.335656 -27.518607 -17.180284 22.289455 -79.541146 54.611443 -20.922965 15.800511 34.681416 -9.381456 2.297182 -6.276696 -57.664125 -23.258782 18.047289 -85.138178 -55.738647 1.442319 5.699173 16.023924 -29.607234 -7.948203 -16.626157 -17.440041 8.382205 -19.716465 -3.505851 12.470975 -28.435742 -4.424260 -9.532747 60.690452 -1.573959 -9.051251 1.777404 1.665816 -5.242130 -3.987639 21.259146 5.497151 0.259015 9.248067 -1.675228 -2.677956 -2.615541 
43.902351 8.817462 83.560036 -3.295169 2.651020 -113.474721 -1.355022 0.197777 0.930166 -0.633908 0.109367 -0.371167 -0.633907 0.109367 -0.371165 -0.475364 0.082410 -0.278257 2.036236 -15.628270 -0.383797 3.657912 7.147313 0.036204 9.194252 1.403532 -3.733069 59.272470 -27.480737 -17.406208 21.131203 -79.511933 55.709775 -21.058098 15.563879 34.771813 -9.397804 2.376795 -6.456178 -57.783209 -23.276378 17.888414 -84.919284 -55.578059 1.402899 5.486346 15.996247 -29.900236 -8.333838 -15.990610 -17.175375 8.903887 -20.789124 -3.965925 13.150640 -29.375626 -4.680175 -10.747041 62.363773 -2.312530 -9.230253 1.753862 1.503116 -5.435675 -3.972402 21.114539 5.542465 0.924966 8.631130 -1.440617 -2.920335 -2.710812 
44.205296 8.848791 83.377235 -3.217070 3.065977 -112.411725 -1.407339 0.144667 0.991466 -0.578473 0.002466 -0.422897 -0.578473 0.002466 -0.422897 -0.433853 0.002250 -0.317170 2.150354 -15.508168 -0.930899 3.669873 7.382167 -0.939688 9.268673 1.607910 -3.788031 59.179177 -27.496265 -17.565746 19.673165 -79.540947 57.031096 -21.348356 15.289822 34.982658 -9.486869 2.423035 -6.674853 -57.917497 -23.433160 17.548269 -84.613374 -55.426664 1.319470 5.389074 16.093546 -30.305717 -9.040625 -15.327628 -17.144540 9.520485 -22.236171 -4.744135 13.737047 -30.344546 -4.642033 -12.062935 64.141494 -3.154107 -9.667472 1.808918 1.987082 -5.412947 -4.286968 20.423294 5.419125 1.336723 7.868991 -1.251703 -2.925052 -2.687678 
44.464520 8.898500 83.087852 -3.160699 3.250567 -111.308840 -1.234781 0.027228 1.077809 -0.498760 -0.134852 -0.457495 -0.498760 -0.134852 -0.457499 -0.374171 -0.100765 -0.343234 2.273867 -15.373047 -1.535325 3.676267 7.643869 -2.020064 9.281466 1.615029 -3.790193 58.979920 -27.452366 -17.550134 17.719602 -79.567852 58.814090 -21.723785 15.092358 35.182120 -9.573362 2.449086 -6.753092 -58.145086 -23.795886 17.007560 -84.067061 -55.314871 1.110881 5.368503 16.261555 -30.808494 -9.711860 -14.550506 -17.266457 10.177415 -24.171005 -5.624452 14.664290 -31.508814 -4.192097 -14.866173 66.162547 -5.341522 -9.989713 1.873676 2.544708 -5.203571 -4.748023 19.462803 5.251837 1.463833 7.331854 -1.147285 -2.721813 -2.587954 
44.831642 9.116869 82.841515 -3.302641 3.444274 -109.987281 -1.143458 -0.299199 0.934373 -0.386323 -0.293337 -0.472873 -0.386322 -0.293337 -0.472875 -0.289968 -0.219704 -0.354840 2.410233 -15.179090 -2.181194 3.688662 8.012868 -3.173827 9.227244 1.514354 -3.724997 58.684446 -27.462014 -17.377372 15.844359 -79.455796 60.549668 -22.087389 14.899407 35.224956 -9.597555 2.306874 -6.724571 -58.458435 -24.121925 16.248224 -83.197257 -55.215126 0.749966 5.321158 16.369890 -31.464697 -10.537014 -13.634926 -17.626232 10.996368 -26.697171 -6.598509 16.369600 -32.992208 -3.215284 -21.579476 68.332798 -11.081699 -10.514318 1.628416 2.700139 -4.975007 -5.075018 18.606783 5.069126 1.564792 6.631240 -0.952920 -2.513562 -2.244862 
45.534981 9.658698 82.644524 -3.819518 3.737436 -108.281099 -1.289179 -1.002424 0.329758 -0.233148 -0.455689 -0.484780 -0.233147 -0.455689 -0.484784 -0.175221 -0.341582 -0.363759 2.552784 -14.935078 -2.829372 3.707884 8.472072 -4.331421 9.106016 1.353597 -3.658185 58.255353 -27.611704 -16.987252 14.779537 -79.254134 61.609727 -22.376379 14.679931 35.037211 -9.612203 2.056174 -6.636731 -58.828829 -24.328394 15.495666 -82.094168 -55.113811 0.307726 5.164281 16.346215 -32.360436 -11.639984 -12.676772 -18.394174 12.008782 -29.902531 -7.577349 19.093556 -34.706824 -1.888111 -33.621015 70.056636 -21.774448 -11.441871 0.783054 2.284784 -4.805657 -5.223742 18.013765 4.823764 1.455194 5.585003 0.659237 -1.955812 -1.517315 
46.333160 10.307593 82.485977 -4.131355 3.809024 -106.484104 -1.188562 -1.638889 -0.459271 -0.056841 -0.604320 -0.488841 -0.056841 -0.604320 -0.488839 -0.043113 -0.453195 -0.366684 2.702009 -14.670685 -3.456271 3.743387 8.966473 -5.449233 9.001961 1.145181 -3.629814 57.653818 -27.845657 -16.368473 14.674766 -79.183339 61.863059 -22.668438 14.560020 34.721212 -9.597474 1.858766 -6.481871 -59.301444 -24.511346 15.007987 -80.872349 -55.011249 -0.202042 4.882708 16.208573 -33.303190 -12.663204 -11.279840 -19.362002 12.968271 -33.681927 -8.579046 22.082410 -36.220927 -0.920192 -46.259936 71.068590 -33.182746 -12.138324 -0.097899 1.525977 -4.666542 -5.246279 17.672718 4.609240 1.459100 4.523256 2.098568 -1.221123 -0.697110 
